<?xml version="1.0" encoding="UTF-8" standalone="no"?>
<!-- Created with Inkscape (http://www.inkscape.org/) -->

<svg
   width="297.00009mm"
   height="210.00015mm"
   viewBox="0 0 297.00009 210.00015"
   version="1.1"
   id="svg1"
   xml:space="preserve"
   inkscape:version="1.4 (86a8ad7, 2024-10-11)"
   sodipodi:docname="öl_mainlogo.svg"
   xmlns:inkscape="http://www.inkscape.org/namespaces/inkscape"
   xmlns:sodipodi="http://sodipodi.sourceforge.net/DTD/sodipodi-0.dtd"
   xmlns="http://www.w3.org/2000/svg"
   xmlns:svg="http://www.w3.org/2000/svg"><sodipodi:namedview
     id="namedview1"
     pagecolor="#ffffff"
     bordercolor="#000000"
     borderopacity="0.25"
     inkscape:showpageshadow="2"
     inkscape:pageopacity="0.0"
     inkscape:pagecheckerboard="0"
     inkscape:deskcolor="#d1d1d1"
     inkscape:document-units="mm"
     inkscape:zoom="0.71891835"
     inkscape:cx="453.45901"
     inkscape:cy="394.34242"
     inkscape:window-width="1920"
     inkscape:window-height="1009"
     inkscape:window-x="-8"
     inkscape:window-y="-8"
     inkscape:window-maximized="1"
     inkscape:current-layer="svg1"><inkscape:page
       x="0"
       y="0"
       width="297.00009"
       height="210.00015"
       id="page2"
       margin="104.5328 294.44 106.74267 245.19067"
       bleed="0" /></sodipodi:namedview><defs
     id="defs1"><clipPath
       clipPathUnits="userSpaceOnUse"
       id="clipPath2"><path
         d="M 0,595.276 H 841.89 V 0 H 0 Z"
         transform="translate(-477.15701,-362.10681)"
         id="path2" /></clipPath><clipPath
       clipPathUnits="userSpaceOnUse"
       id="clipPath4"><path
         d="M 0,595.276 H 841.89 V 0 H 0 Z"
         transform="translate(-477.15701,-362.10681)"
         id="path4" /></clipPath><clipPath
       clipPathUnits="userSpaceOnUse"
       id="clipPath6"><path
         d="M 0,595.276 H 841.89 V 0 H 0 Z"
         transform="translate(-325.21971,-194.4368)"
         id="path6" /></clipPath><clipPath
       clipPathUnits="userSpaceOnUse"
       id="clipPath8"><path
         d="M 0,595.276 H 841.89 V 0 H 0 Z"
         transform="translate(-373.74951,-195.2581)"
         id="path8" /></clipPath><clipPath
       clipPathUnits="userSpaceOnUse"
       id="clipPath56"><path
         d="M 0,595.276 H 841.89 V 0 H 0 Z"
         transform="translate(-576.83951,-296.71781)"
         id="path56" /></clipPath></defs><g
     inkscape:label="Layer 1"
     inkscape:groupmode="layer"
     id="layer1"
     transform="translate(-220)" /><circle
     style="fill:#eae7d0;fill-opacity:1;stroke:none;stroke-width:0.11027"
     id="path57"
     cx="141.93564"
     cy="105.49853"
     inkscape:label="background"
     r="76.5" /><g
     id="layer-MC0"
     inkscape:groupmode="layer"
     inkscape:label="Ebene 1"
     transform="matrix(0.26458333,0,0,0.26458334,1.1110387e-5,0)"><path
       id="path1"
       d="m 0,0 c -2.424,0 -4.265,-0.935 -5.823,-2.013 -8.469,-5.856 -16.049,-23.106 -20.274,-46.143 -2.02,-11.011 -3.173,-22.659 -3.443,-34.021 16.048,15.203 29.363,32.266 36.79,47.764 4.1,8.556 6.121,16.127 5.845,21.895 -0.232,4.833 -1.969,7.947 -5.63,10.098 C 4.455,-0.653 2.024,0 0,0 m -9.08,-165.794 c -2.821,0 -5.739,0.407 -8.748,1.222 -7.688,2.083 -14.071,7.77 -18.973,16.901 -3.849,7.171 -6.774,16.473 -8.695,27.65 -0.06,0.347 -0.118,0.695 -0.176,1.046 -0.44,-0.303 -0.881,-0.603 -1.323,-0.901 -36.655,-24.758 -71.96,-32.653 -99.413,-22.231 -10.655,4.045 -19.192,11.342 -25.376,21.687 -5.384,9.008 -8.858,20.181 -10.324,33.21 -1.322,11.757 -0.995,24.748 0.974,38.613 1.877,13.221 5.15,26.627 9.728,39.848 8.82,25.469 21.66,47.632 36.155,62.406 8.245,8.404 16.927,14.351 25.805,17.678 10.159,3.806 20.36,4.151 30.321,1.027 19.186,-6.017 31.178,-20.319 34.681,-41.36 1.895,-11.382 1.272,-24.56 -1.852,-39.17 -2.74,-12.815 -7.472,-26.743 -13.684,-40.278 -5.902,-12.859 -13.075,-25.264 -20.745,-35.875 -7.949,-10.998 -16.304,-19.864 -24.16,-25.638 -8.684,-6.383 -15.98,-8.492 -21.827,-8.492 -4.152,0 -7.573,1.063 -10.245,2.414 -6.043,3.055 -10.39,8.311 -12.569,15.198 -2.088,6.598 -2.27,14.576 -0.557,24.39 1.239,7.103 3.499,15.151 6.715,23.919 5.372,14.645 11.567,26.318 11.828,26.808 l 16.297,-8.689 -8.148,4.345 8.15,-4.342 c -0.059,-0.11 -5.934,-11.2 -10.862,-24.684 -3.456,-9.457 -8.807,-26.732 -5.814,-36.18 0.876,-2.764 2.22,-3.741 3.293,-4.283 2.489,-1.258 7.275,0.416 12.801,4.477 13.143,9.66 28.109,30.481 39.058,54.336 11.912,25.953 17.052,50.997 14.103,68.711 -2.349,14.11 -9.542,22.867 -21.99,26.771 -6.023,1.889 -12.013,1.66 -18.314,-0.7 -6.333,-2.373 -12.76,-6.854 -19.102,-13.317 -12.618,-12.862 -23.943,-32.577 -31.886,-55.515 -8.498,-24.54 -12.07,-50.182 -9.801,-70.353 1.169,-10.39 3.802,-19.071 7.824,-25.8 4.054,-6.782 9.313,-11.327 16.078,-13.895 11.092,-4.212 24.179,-4.392 38.898,-0.535 13.704,3.59 28.788,10.784 43.623,20.803 3.209,2.168 6.385,4.452 9.512,6.834 -0.788,17.156 0.415,35.781 3.557,52.914 2.4,13.084 5.757,24.523 9.978,34 4.948,11.108 10.989,19.183 17.957,24.002 4.934,3.411 10.28,5.188 15.89,5.28 0.152,0.003 0.303,0.004 0.455,0.004 5.548,0 11.197,-1.666 16.8,-4.957 9.101,-5.344 14.193,-14.037 14.725,-25.138 0.429,-8.943 -2.141,-19.293 -7.637,-30.761 -6.259,-13.06 -16.149,-27.178 -28.602,-40.827 -7.405,-8.117 -15.523,-15.85 -24.028,-22.918 0.364,-3.72 0.84,-7.318 1.431,-10.754 1.561,-9.083 3.9,-16.705 6.765,-22.043 1.654,-3.08 4.302,-6.935 7.531,-7.81 8.15,-2.209 11.869,1.479 21.324,16.253 3.198,4.995 6.503,10.161 10.597,14.863 11.552,13.269 21.72,17.269 22.841,17.681 l 6.375,-17.333 c 0,0 0.042,0.014 0.124,0.047 -0.084,-0.034 -7.038,-2.905 -15.41,-12.522 -3.201,-3.676 -6.134,-8.26 -8.971,-12.692 -4.311,-6.735 -8.768,-13.7 -14.788,-18.628 -5.462,-4.472 -11.549,-6.717 -18.174,-6.717"
       style="fill:#231f20;fill-opacity:1;fill-rule:nonzero;stroke:none"
       transform="matrix(1.3333333,0,0,-1.3333333,636.20936,310.89225)"
       clip-path="url(#clipPath2)" /><path
       id="path3"
       d="m 0,0 c -2.424,0 -4.265,-0.935 -5.823,-2.013 -8.469,-5.856 -16.049,-23.106 -20.274,-46.143 -2.02,-11.011 -3.173,-22.659 -3.443,-34.021 16.048,15.203 29.363,32.266 36.79,47.764 4.1,8.556 6.121,16.127 5.845,21.895 -0.232,4.833 -1.969,7.947 -5.63,10.098 C 4.455,-0.653 2.024,0 0,0 Z m -9.08,-165.794 c -2.821,0 -5.739,0.407 -8.748,1.222 -7.688,2.083 -14.071,7.77 -18.973,16.901 -3.849,7.171 -6.774,16.473 -8.695,27.65 -0.06,0.347 -0.118,0.695 -0.176,1.046 -0.44,-0.303 -0.881,-0.603 -1.323,-0.901 -36.655,-24.758 -71.96,-32.653 -99.413,-22.231 -10.655,4.045 -19.192,11.342 -25.376,21.687 -5.384,9.008 -8.858,20.181 -10.324,33.21 -1.322,11.757 -0.995,24.748 0.974,38.613 1.877,13.221 5.15,26.627 9.728,39.848 8.82,25.469 21.66,47.632 36.155,62.406 8.245,8.404 16.927,14.351 25.805,17.678 10.159,3.806 20.36,4.151 30.321,1.027 19.186,-6.017 31.178,-20.319 34.681,-41.36 1.895,-11.382 1.272,-24.56 -1.852,-39.17 -2.74,-12.815 -7.472,-26.743 -13.684,-40.278 -5.902,-12.859 -13.075,-25.264 -20.745,-35.875 -7.949,-10.998 -16.304,-19.864 -24.16,-25.638 -8.684,-6.383 -15.98,-8.492 -21.827,-8.492 -4.152,0 -7.573,1.063 -10.245,2.414 -6.043,3.055 -10.39,8.311 -12.569,15.198 -2.088,6.598 -2.27,14.576 -0.557,24.39 1.239,7.103 3.499,15.151 6.715,23.919 5.372,14.645 11.567,26.318 11.828,26.808 l 16.297,-8.689 -8.148,4.345 8.15,-4.342 c -0.059,-0.11 -5.934,-11.2 -10.862,-24.684 -3.456,-9.457 -8.807,-26.732 -5.814,-36.18 0.876,-2.764 2.22,-3.741 3.293,-4.283 2.489,-1.258 7.275,0.416 12.801,4.477 13.143,9.66 28.109,30.481 39.058,54.336 11.912,25.953 17.052,50.997 14.103,68.711 -2.349,14.11 -9.542,22.867 -21.99,26.771 -6.023,1.889 -12.013,1.66 -18.314,-0.7 -6.333,-2.373 -12.76,-6.854 -19.102,-13.317 -12.618,-12.862 -23.943,-32.577 -31.886,-55.515 -8.498,-24.54 -12.07,-50.182 -9.801,-70.353 1.169,-10.39 3.802,-19.071 7.824,-25.8 4.054,-6.782 9.313,-11.327 16.078,-13.895 11.092,-4.212 24.179,-4.392 38.898,-0.535 13.704,3.59 28.788,10.784 43.623,20.803 3.209,2.168 6.385,4.452 9.512,6.834 -0.788,17.156 0.415,35.781 3.557,52.914 2.4,13.084 5.757,24.523 9.978,34 4.948,11.108 10.989,19.183 17.957,24.002 4.934,3.411 10.28,5.188 15.89,5.28 0.152,0.003 0.303,0.004 0.455,0.004 5.548,0 11.197,-1.666 16.8,-4.957 9.101,-5.344 14.193,-14.037 14.725,-25.138 0.429,-8.943 -2.141,-19.293 -7.637,-30.761 -6.259,-13.06 -16.149,-27.178 -28.602,-40.827 -7.405,-8.117 -15.523,-15.85 -24.028,-22.918 0.364,-3.72 0.84,-7.318 1.431,-10.754 1.561,-9.083 3.9,-16.705 6.765,-22.043 1.654,-3.08 4.302,-6.935 7.531,-7.81 8.15,-2.209 11.869,1.479 21.324,16.253 3.198,4.995 6.503,10.161 10.597,14.863 11.552,13.269 21.72,17.269 22.841,17.681 l 6.375,-17.333 c 0,0 0.042,0.014 0.124,0.047 -0.084,-0.034 -7.038,-2.905 -15.41,-12.522 -3.201,-3.676 -6.134,-8.26 -8.971,-12.692 -4.311,-6.735 -8.768,-13.7 -14.788,-18.628 -5.462,-4.472 -11.549,-6.717 -18.174,-6.717 z"
       style="fill:none;stroke:#231f20;stroke-width:0.992;stroke-linecap:butt;stroke-linejoin:miter;stroke-miterlimit:10;stroke-dasharray:none;stroke-opacity:1"
       transform="matrix(1.3333333,0,0,-1.3333333,636.20936,310.89225)"
       clip-path="url(#clipPath4)" /><path
       id="path5"
       d="m 0,0 c 0,-6.418 -5.203,-11.621 -11.621,-11.621 -6.418,0 -11.621,5.203 -11.621,11.621 0,6.418 5.203,11.621 11.621,11.621 C -5.203,11.621 0,6.418 0,0"
       style="fill:#231f20;fill-opacity:1;fill-rule:nonzero;stroke:#231f20;stroke-width:0.992;stroke-linecap:butt;stroke-linejoin:miter;stroke-miterlimit:10;stroke-dasharray:none;stroke-opacity:1"
       transform="matrix(1.3333333,0,0,-1.3333333,433.6263,534.45225)"
       clip-path="url(#clipPath6)" /><path
       id="path7"
       d="m 0,0 c 0,-6.418 -5.203,-11.621 -11.621,-11.621 -6.418,0 -11.621,5.203 -11.621,11.621 0,6.418 5.203,11.621 11.621,11.621 C -5.203,11.621 0,6.418 0,0"
       style="fill:#231f20;fill-opacity:1;fill-rule:nonzero;stroke:#231f20;stroke-width:0.992;stroke-linecap:butt;stroke-linejoin:miter;stroke-miterlimit:10;stroke-dasharray:none;stroke-opacity:1"
       transform="matrix(1.3333333,0,0,-1.3333333,498.3327,533.35718)"
       clip-path="url(#clipPath8)" /><path
       id="path9"
       d="m 481.20706,665.1914 c 0.87499,0.12503 1.53906,0.0977 1.98437,-0.0781 0.44922,-0.16797 0.75,-0.4336 0.90625,-0.79688 l 9.20313,-20.46875 4.8125,0.65625 3.01561,16.64063 7.35938,-15.25 4.875,0.65625 3.20312,22.09375 c 0.0625,0.38281 0.29688,0.73437 0.70313,1.04687 0.40625,0.3125 0.94531,0.50781 1.60937,0.59375 l -0.26562,1.95313 -10.76563,-1.43745 0.26562,-1.95313 2.34374,0.31252 c 0.59376,0.082 0.91797,-0.0742 0.96875,-0.46875 l -2.46875,-18.6875 -7.23437,16 c -0.0312,0.10157 -0.0547,0.19532 -0.0781,0.28125 -0.0196,0.0937 -0.0352,0.17969 -0.0469,0.26563 -0.125,0.92578 0.60937,1.5 2.20312,1.71875 l -0.26566,1.95312 -10.20311,-1.37502 0.26566,-1.95312 2.35938,0.31247 c 0.3125,0.0391 0.52734,0.008 0.64062,-0.0937 0.10547,-0.10546 0.17188,-0.27343 0.20313,-0.5 0.043,-0.30468 0.0156,-0.69531 -0.0781,-1.17187 l -2.95312,-17.48438 -7.1875,16.71875 c -0.0196,0.0625 -0.0469,0.20313 -0.0781,0.42188 -0.0703,0.55079 0.32812,0.88281 1.20312,1 l 1.60938,0.21878 -0.26567,1.95312 -8.10936,-1.09381 z m 0,0"
       style="fill:#231f20;fill-opacity:1;fill-rule:nonzero;stroke:none;stroke-width:1.33333"
       aria-label="W" /><path
       id="path10"
       d="m 463.30862,660.26952 c 1.91798,0.48823 3.00781,0.23828 3.26562,-0.75 l 4.43751,-17.23437 c 0.24999,-0.98828 -0.58203,-1.72656 -2.5,-2.21875 l 0.48438,-1.875 10.71875,2.75 -0.48438,1.875 c -1.9375,-0.50001 -3.03125,-0.25781 -3.28125,0.73437 l -4.43751,17.23438 c -0.25781,0.98828 0.57813,1.73437 2.51563,2.23437 l -0.48438,1.90625 -10.71875,-2.74999 z m 0,0"
       style="fill:#231f20;fill-opacity:1;fill-rule:nonzero;stroke:none;stroke-width:1.33333"
       aria-label="I" /><path
       id="path11"
       d="m 443.32425,655.875 c -1.89455,-0.68746 -3.50781,-1.4375 -4.84375,-2.25 -1.34375,-0.80469 -2.35937,-1.77735 -3.04687,-2.92188 -0.6875,-1.14844 -1.00782,-2.52734 -0.96875,-4.14062 0.0312,-1.61719 0.46875,-3.58594 1.3125,-5.90625 0.85541,-2.35549 1.80468,-4.22657 2.84375,-5.62502 1.04297,-1.39453 2.21875,-2.38281 3.53125,-2.96875 1.3125,-0.59375 2.76562,-0.82812 4.35937,-0.70312 1.58594,0.125 3.32422,0.53125 5.21875,1.21875 l 12.23438,4.40626 -0.65625,1.82812 c -1.86329,-0.66796 -2.96875,-0.52343 -3.3125,0.4375 l -6.04688,16.73438 c -0.34375,0.95703 0.41797,1.76953 2.28125,2.4375 l -0.67187,1.85938 z m 5.53125,-0.8125 6.64063,-18.375 -5.14063,-1.85939 c -1.16406,-0.41407 -2.21874,-0.55078 -3.15625,-0.40625 -0.9375,0.14844 -1.78906,0.54687 -2.5625,1.20312 -0.76953,0.65626 -1.46874,1.55861 -2.09374,2.70314 -0.62501,1.14453 -1.21875,2.49219 -1.78125,4.04687 -0.55079,1.53125 -0.92969,2.87891 -1.14063,4.04688 -0.21875,1.16406 -0.21094,2.17578 0.0156,3.03125 0.23046,0.86328 0.67968,1.59765 1.34375,2.20312 0.65625,0.61329 1.57031,1.12891 2.73437,1.54688 z m 0,0"
       style="fill:#231f20;fill-opacity:1;fill-rule:nonzero;stroke:none;stroke-width:1.33333"
       aria-label="D" /><path
       id="path12"
       d="m 413.18363,642.84765 c -1.81251,-0.90623 -3.32813,-1.84375 -4.54688,-2.8125 -1.22656,-0.96094 -2.11718,-2.04688 -2.67187,-3.26563 -0.55078,-1.21094 -0.70703,-2.61719 -0.46875,-4.21876 0.24219,-1.60547 0.91797,-3.50781 2.03125,-5.70312 1.125,-2.25 2.29297,-4 3.5,-5.25 1.19922,-1.25 2.49218,-2.08594 3.875,-2.51563 1.375,-0.4375 2.83984,-0.49219 4.39062,-0.17187 1.55469,0.3125 3.23438,0.92187 5.04688,1.82812 l 11.59375,5.84375 -0.875,1.73438 c -1.75782,-0.88672 -2.86719,-0.875 -3.32813,0.0312 l -8.01562,15.89063 c -0.45703,0.91407 0.19531,1.81641 1.95312,2.70313 l -0.89062,1.75 z m 5.60937,-0.14063 8.78126,-17.43751 -4.89063,-2.45312 c -1.10156,-0.5625 -2.1289,-0.82031 -3.07812,-0.78125 -0.94531,0.0312 -1.84375,0.32812 -2.6875,0.89062 -0.84375,0.55469 -1.64453,1.35938 -2.40625,2.42188 -0.75781,1.05469 -1.50781,2.3125 -2.25,3.78125 -0.72662,1.46872 -1.26562,2.76953 -1.60938,3.90625 -0.35156,1.13281 -0.47265,2.14062 -0.35937,3.01562 0.11719,0.87501 0.46875,1.64845 1.0625,2.32814 0.59375,0.6875 1.44531,1.3125 2.54687,1.875 z m 0,0"
       style="fill:#231f20;fill-opacity:1;fill-rule:nonzero;stroke:none;stroke-width:1.33333"
       aria-label="D" /><path
       id="path13"
       d="m 381.39847,615.02342 2.01562,1.15625 c -1.61328,2.95703 -1.34765,5.14063 0.79688,6.54688 l 6.23438,4.12498 4.42187,-6.70313 -3.17187,-2.09374 c -1.11329,-0.74218 -2.48828,-0.0391 -4.125,2.10937 l -1.76564,-1.15623 6.14062,-8.42187 1.6875,1.125 c -1.3203,2.42577 -1.49217,3.96093 -0.51561,4.60937 l 2.96875,1.96874 5.10937,-7.73437 -5.23437,-3.45313 c -3.10156,-2.05078 -6.14063,-1.20703 -9.10938,2.53125 l -1.875,-1.5 5.90625,-7.5 18.46875,12.1875 -1.0625,1.625 c -1.65625,-1.09375 -2.76562,-1.21875 -3.32812,-0.375 l -9.79688,14.85938 c -0.5625,0.85157 -0.0156,1.82813 1.64063,2.92188 l -1.07813,1.64062 -18.46873,-12.18752 z m 0,0"
       style="fill:#231f20;fill-opacity:1;fill-rule:nonzero;stroke:none;stroke-width:1.33333"
       aria-label="E" /><path
       id="path14"
       d="m 342.68754,589.83592 c 0.65622,0.57425 1.21875,0.91797 1.6875,1.03125 0.46875,0.10547 0.875,0.043 1.21875,-0.1875 l 18.99999,-11.90625 3.65625,3.21875 -6.73437,15.51563 14.59375,-8.59375 3.67187,3.23437 -9.57812,20.15625 c -0.16406,0.35157 -0.16406,0.77344 0,1.26563 0.16797,0.48828 0.5,0.95312 1,1.39062 l -1.29687,1.48438 -8.15628,-7.17185 1.29687,-1.48437 1.76559,1.54692 c 0.46093,0.40625 0.82031,0.46094 1.07812,0.17187 l 8.32812,-16.9375 -14.90624,9.29688 c -0.082,0.082 -0.15625,0.14844 -0.21875,0.20312 -0.0703,0.0508 -0.14063,0.10938 -0.20312,0.17188 -0.61329,0.70703 -0.31641,1.59766 0.89062,2.67188 l -1.29685,1.48439 -7.71873,-6.81253 1.29686,-1.48439 1.78125,1.57812 c 0.23047,0.20702 0.42187,0.29688 0.57812,0.26563 0.15625,-0.0234 0.3125,-0.1211 0.46875,-0.29688 0.1992,-0.23048 0.38672,-0.57031 0.5625,-1.01562 l 7.26562,-16.1875 -15.26562,9.92187 c -0.0508,0.043 -0.14845,0.14843 -0.29688,0.3125 -0.36324,0.418 -0.21875,0.91797 0.4375,1.5 l 1.21879,1.06246 -1.29685,1.48439 -6.14058,-5.39067 z m 0,0"
       style="fill:#231f20;fill-opacity:1;fill-rule:nonzero;stroke:none;stroke-width:1.33333"
       aria-label="W" /><path
       id="path15"
       d="m 330.52737,575.79685 c 1.31249,1.45704 2.34375,1.84375 3.09375,1.15625 l 13.25,-11.89062 c 0.76172,-0.67578 0.48438,-1.74219 -0.82812,-3.20313 l 1.4375,-1.29687 7.39062,8.23437 -1.4375,1.29688 c -1.33203,-1.48828 -2.3789,-1.89453 -3.14062,-1.21875 l -13.25,11.89062 c -0.75,0.6875 -0.45703,1.77344 0.875,3.26563 l -1.46875,1.3125 -7.39063,-8.23437 z m 0,0"
       style="fill:#231f20;fill-opacity:1;fill-rule:nonzero;stroke:none;stroke-width:1.33333"
       aria-label="I" /><path
       id="path16"
       d="m 316.30863,561.08201 c -1.207,-1.61721 -2.14453,-3.125 -2.8125,-4.53125 -0.66406,-1.41406 -0.96875,-2.78906 -0.90625,-4.125 0.0625,-1.34375 0.55859,-2.67578 1.48438,-4 0.91796,-1.32031 2.36718,-2.71875 4.34375,-4.1875 2.02343,-1.5 3.85546,-2.53515 5.5,-3.10937 1.64843,-0.58203 3.17968,-0.75391 4.59375,-0.51563 1.41796,0.23047 2.75,0.83594 4,1.8125 1.25,0.98047 2.48046,2.27735 3.6875,3.89063 l 7.75,10.45312 -1.5625,1.15625 c -1.17578,-1.59375 -2.17188,-2.08593 -2.98438,-1.48437 l -14.29687,10.60937 c -0.82032,0.60157 -0.64454,1.70313 0.53125,3.29688 l -1.57813,1.1875 z m 5.0625,2.39063 15.6875,-11.64062 -3.25,-4.39063 c -0.73827,-0.98828 -1.53906,-1.67969 -2.40625,-2.07812 -0.86328,-0.40625 -1.79687,-0.54688 -2.79687,-0.42188 -1.00781,0.11719 -2.09375,0.48047 -3.25,1.09375 -1.15625,0.60547 -2.39453,1.39844 -3.71875,2.375 -1.31247,0.98051 -2.375,1.90235 -3.1875,2.76563 -0.82031,0.85547 -1.375,1.70312 -1.65625,2.54687 -0.28906,0.83594 -0.32813,1.6875 -0.10938,2.5625 0.21875,0.875 0.69922,1.80469 1.4375,2.79688 z m 0,0"
       style="fill:#231f20;fill-opacity:1;fill-rule:nonzero;stroke:none;stroke-width:1.33333"
       aria-label="D" /><path
       id="path17"
       d="m 298.40236,533.60545 c -0.99996,-1.75784 -1.75,-3.37891 -2.25,-4.85938 -0.5,-1.47656 -0.63281,-2.875 -0.40625,-4.1875 0.21875,-1.32031 0.86719,-2.58203 1.9375,-3.78125 1.07422,-1.20703 2.68359,-2.42187 4.82812,-3.64062 2.17968,-1.25003 4.1211,-2.06641 5.82815,-2.45313 1.69922,-0.38281 3.24219,-0.375 4.625,0.0312 1.375,0.40625 2.625,1.17188 3.75,2.29688 1.125,1.11718 2.1875,2.55468 3.1875,4.3125 l 6.45312,11.28125 -1.6875,0.95312 c -0.97656,-1.71875 -1.91015,-2.32031 -2.79687,-1.8125 l -15.45315,8.82812 c -0.88281,0.50001 -0.83594,1.60938 0.14063,3.32813 l -1.70313,0.98437 z m 4.73437,2.96875 16.96877,-9.6875 -2.71875,-4.75 c -0.61328,-1.07031 -1.32813,-1.85156 -2.14063,-2.34375 -0.8125,-0.5 -1.71875,-0.75 -2.71875,-0.75 -1,0 -2.11328,0.23437 -3.34375,0.70312 -1.22656,0.46094 -2.5547,1.10157 -3.98439,1.92188 -1.41404,0.80474 -2.57813,1.58593 -3.48438,2.34375 -0.91406,0.75 -1.5664,1.52734 -1.95312,2.32812 -0.39453,0.79297 -0.53516,1.63672 -0.42188,2.53125 0.10547,0.89844 0.46485,1.88282 1.07813,2.95313 z m 0,0"
       style="fill:#231f20;fill-opacity:1;fill-rule:nonzero;stroke:none;stroke-width:1.33333"
       aria-label="D" /><path
       id="path18"
       d="m 287.24611,492.83201 1.04687,2.09375 c -2.97656,1.5625 -3.96094,3.52734 -2.95312,5.89063 l 2.92192,6.87498 7.39062,-3.15626 -1.48433,-3.50002 c -0.51955,-1.22655 -2.05468,-1.40625 -4.60937,-0.53125 l -0.8281,-1.93751 9.76563,-3.60938 0.79688,1.875 c -2.44544,1.28131 -3.43763,2.4649 -2.96888,3.54694 l 1.39062,3.28125 8.51563,-3.625 -2.45313,-5.76563 c -1.45702,-3.4375 -4.45703,-4.41016 -9,-2.92187 l -0.71875,-2.28125 9.04688,-2.98438 8.67189,20.34375 -1.78125,0.76563 c -0.76952,-1.8125 -1.62499,-2.51954 -2.56251,-2.125 l -16.37501,6.96874 c -0.9375,0.40625 -1.01953,1.51563 -0.25,3.32813 l -1.8125,0.76562 -8.67183,-20.34376 z m 0,0"
       style="fill:#231f20;fill-opacity:1;fill-rule:nonzero;stroke:none;stroke-width:1.33333"
       aria-label="E" /><path
       id="path19"
       d="m 268.99221,450.42966 c 0.2305,0.84374 0.50781,1.44531 0.82812,1.79687 0.3125,0.34375 0.67969,0.51563 1.09375,0.51563 l 22.42188,0.625 1.26562,4.6875 -14.20312,9.20312 16.90625,0.90625 1.28125,4.75 -19.15625,11.46875 c -0.33203,0.20704 -0.5625,0.55469 -0.6875,1.04688 -0.13282,0.5 -0.11328,1.07031 0.0625,1.71875 l -1.90625,0.5 -2.81245,-10.50001 1.90625,-0.5 0.60942,2.28124 c 0.15625,0.58593 0.42188,0.82422 0.79688,0.71875 l 16.3124,-9.48436 -17.57813,-0.5 c -0.10156,0.0117 -0.20312,0.0235 -0.29687,0.0313 -0.0937,0.0117 -0.17578,0.0312 -0.25001,0.0625 -0.90625,0.24219 -1.14453,1.14063 -0.71875,2.70313 l -1.90624,0.50005 -2.67189,-9.95312 1.90624,-0.50005 0.60934,2.29688 c 0.086,0.30468 0.19922,0.49219 0.34375,0.5625 0.13671,0.0625 0.3125,0.0625 0.53125,0 0.30469,-0.082 0.65625,-0.25781 1.0625,-0.53125 l 15,-9.46875 -18.20313,-0.17187 c -0.0625,-0.008 -0.20312,0.0156 -0.42187,0.0781 -0.53127,0.14837 -0.6875,0.64062 -0.46875,1.48437 l 0.42188,1.57813 -1.90624,0.50004 -2.10938,-7.89062 z m 0,0"
       style="fill:#231f20;fill-opacity:1;fill-rule:nonzero;stroke:none;stroke-width:1.33333"
       aria-label="W" /><path
       id="path20"
       d="m 266.63673,431.99216 c 0.28125,1.94922 0.92969,2.85156 1.9375,2.70313 l 17.60938,-2.54688 c 1.01172,-0.14453 1.375,-1.19141 1.09375,-3.14062 l 1.92187,-0.28125 1.59375,10.95312 -1.92187,0.28125 c -0.28906,-1.97656 -0.94141,-2.89453 -1.95313,-2.75 l -17.60937,2.54688 c -1.00781,0.14844 -1.36719,1.21093 -1.07813,3.1875 l -1.95312,0.28125 -1.59379,-10.95312 z m 0,0"
       style="fill:#231f20;fill-opacity:1;fill-rule:nonzero;stroke:none;stroke-width:1.33333"
       aria-label="I" /><path
       id="path21"
       d="m 272.55861,399.42186 0.20313,2.09376 c -1.48828,0.16796 -2.71093,0.39062 -3.67187,0.67187 -0.96875,0.28125 -1.73828,0.63672 -2.3125,1.0625 -0.57031,0.41797 -0.95703,0.90625 -1.15625,1.46875 -0.20703,0.5625 -0.28906,1.22656 -0.25,1.98437 l 0.15628,2.98438 18.625,-0.95315 c 1.02343,-0.0508 1.48046,-1.07031 1.375,-3.0625 l 1.9375,-0.0937 0.5625,11.07812 -1.9375,0.0938 c -0.10156,-1.97657 -0.66406,-2.94141 -1.6875,-2.89063 l -18.625,0.95313 0.15625,3.04688 c 0.043,0.75 0.19531,1.39843 0.45313,1.9375 0.26171,0.54297 0.69922,0.99218 1.3125,1.34375 0.60546,0.35547 1.40625,0.625 2.40625,0.8125 0.99218,0.1875 2.23046,0.28906 3.71875,0.29687 l 0.0156,2.10938 -10.1875,0.51562 -1.28119,-24.9375 z m 0,0"
       style="fill:#231f20;fill-opacity:1;fill-rule:nonzero;stroke:none;stroke-width:1.33333"
       aria-label="T" /><path
       id="path22"
       d="m 274.23049,368.32811 -0.0469,2.10937 c -1.48828,-0.008 -2.72656,0.0703 -3.71875,0.23438 -1,0.16796 -1.80469,0.42968 -2.42188,0.78125 -0.625,0.35548 -1.0664,0.80469 -1.32812,1.34376 -0.26953,0.53125 -0.42969,1.17968 -0.48438,1.9375 l -0.18751,2.98437 18.60938,1.21879 c 1.02344,0.0625 1.59375,-0.89844 1.71875,-2.89063 l 1.9375,0.125 -0.71875,11.0625 -1.9375,-0.125 c 0.125,-1.96875 -0.32032,-2.98437 -1.34375,-3.04687 l -18.60938,-1.21875 -0.18749,3.03125 c -0.0508,0.75 0.0234,1.41406 0.21875,1.98438 0.1875,0.57422 0.57032,1.07422 1.14063,1.5 0.5625,0.41797 1.32812,0.77734 2.29687,1.07812 0.96094,0.29297 2.1836,0.53125 3.67188,0.71875 l -0.23438,2.07813 -10.1875,-0.65625 1.62504,-24.90626 z m 0,0"
       style="fill:#231f20;fill-opacity:1;fill-rule:nonzero;stroke:none;stroke-width:1.33333"
       aria-label="T" /><path
       id="path23"
       d="m 278.78126,326.37888 c -2.40625,-1.58203 -4.05078,-3.42578 -4.9375,-5.53125 -0.89453,-2.11328 -1,-4.40625 -0.3125,-6.875 0.8125,-2.92578 2.35938,-5.02344 4.64063,-6.29687 2.28125,-1.28125 4.88672,-1.51563 7.8125,-0.70313 2.58593,0.71875 4.48437,1.91406 5.70312,3.57813 1.21875,1.66796 2.07813,4.46093 2.57813,8.375 l 0.0781,0.5 c 0.83203,6.4375 2.57031,10.68359 5.21875,12.73437 -3.35547,0.40625 -7.02344,3.13282 -11.01562,8.17188 -0.15625,0.1875 -0.26953,0.33594 -0.34375,0.4375 -2.45703,3.11719 -4.62891,5.07031 -6.51563,5.85937 -1.88281,0.79297 -4.13281,0.82813 -6.75,0.10938 -2.92578,-0.8125 -5.03515,-2.35938 -6.32812,-4.64063 -1.28907,-2.28125 -1.53516,-4.8789 -0.73438,-7.79687 0.6875,-2.47656 1.96094,-4.39063 3.8125,-5.73438 1.85547,-1.34375 4.21875,-2.07031 7.09375,-2.1875 z m 0,0"
       style="fill:#231f20;fill-opacity:1;fill-rule:nonzero;stroke:none;stroke-width:1.33333"
       aria-label=" ❤" /><path
       id="path24"
       d="m 296.98048,269.37889 c -1.16401,2.17971 -1.29687,3.51172 -0.39062,4 l 16.45314,8.82813 3.09375,-5.76563 c 0.39453,-0.73828 0.64453,-1.45703 0.75,-2.15625 0.11328,-0.70703 0.0469,-1.40625 -0.20313,-2.09375 -0.25,-0.6875 -0.71093,-1.37891 -1.375,-2.07812 -0.66796,-0.69532 -1.57812,-1.41407 -2.73437,-2.15625 l 1.25,-1.82813 8,5.1875 -10.3125,19.20313 -1.70313,-0.92188 c 0.93751,-1.73828 0.95313,-2.84766 0.0469,-3.32812 l -15.6719,-8.40626 c -0.90624,-0.48828 -1.82812,0.13672 -2.76562,1.875 l -1.73437,-0.92187 5.56245,-10.3594 z m 0,0"
       style="fill:#231f20;fill-opacity:1;fill-rule:nonzero;stroke:none;stroke-width:1.33333"
       aria-label=" L" /><path
       id="path25"
       d="m 317.71097,236.25388 c -0.42578,0.64844 -0.69531,1.21094 -0.8125,1.6875 -0.11328,0.46875 -0.0977,0.85547 0.0469,1.15625 l 5.01563,12.48438 6.01563,4.03124 c 0.84372,0.57426 1.88281,-0.0625 3.125,-1.90625 l 1.60938,1.07811 -6.56251,9.76565 -1.60938,-1.07813 c 1.23828,-1.84375 1.4375,-3.05078 0.59375,-3.625 l -6.01562,-4.03125 -13.29689,-0.0937 c -0.44532,-0.008 -0.85157,0.13281 -1.21875,0.42187 -0.375,0.29297 -0.73438,0.69531 -1.07813,1.20313 l -1.64062,-1.10938 6.82817,-10.15623 1.64063,1.10937 -1.46875,2.1875 c -0.37499,0.56251 -0.37891,0.96875 -0.0156,1.21875 0.10547,0.0625 0.26563,0.0937 0.48438,0.0937 l 10.125,0.3125 -3.95313,-9.25 c -0.0703,-0.16406 -0.17578,-0.28906 -0.3125,-0.37499 -0.43747,-0.28911 -0.91015,-0.0547 -1.42187,0.70312 l -0.89063,1.32812 -1.64062,-1.10937 4.79687,-7.17187 z m 0,0"
       style="fill:#231f20;fill-opacity:1;fill-rule:nonzero;stroke:none;stroke-width:1.33333"
       aria-label="Y" /><path
       id="path26"
       d="m 340.44534,217.56638 -1.21875,1.67187 c -2.80078,-1.89453 -4.98828,-1.91406 -6.5625,-0.0625 l -4.9844,5.87498 6.70312,5.68751 2.62501,-3.09375 c 0.875,-1.03125 0.29687,-2.54688 -1.73438,-4.54688 l 1.3125,-1.54687 8.10938,7.54687 -1.26563,1.5 c -2.38669,-1.69529 -3.96091,-2.09764 -4.71872,-1.20311 l -2.46875,2.92188 5.67187,4.79688 c 0.76953,0.66797 2.0039,0 3.70312,-2 l 1.48437,1.25 -7.76562,9.15625 -1.48438,-1.25 c 1.28126,-1.50781 1.53516,-2.59765 0.76563,-3.26562 l -13.57813,-11.5 c -0.78125,-0.65625 -1.8125,-0.22656 -3.09375,1.28125 l -1.5,-1.28125 14.24995,-16.81254 z m 0,0"
       style="fill:#231f20;fill-opacity:1;fill-rule:nonzero;stroke:none;stroke-width:1.33333"
       aria-label="F" /><path
       id="path27"
       d="m 364.84769,197.62497 -1.46875,1.5 c -1.08594,-1.01953 -2.04688,-1.80469 -2.89063,-2.35938 -0.84375,-0.55078 -1.61718,-0.91015 -2.3125,-1.07812 -0.6875,-0.16406 -1.3125,-0.14063 -1.875,0.0781 -0.55078,0.21094 -1.10156,0.57422 -1.65625,1.09375 l -2.1875,2.0625 12.79692,13.56246 c 0.6953,0.75001 1.77344,0.4375 3.23438,-0.9375 l 1.32809,1.40628 -8.07813,7.60939 -1.32813,-1.40625 c 1.4375,-1.35156 1.80469,-2.40625 1.10938,-3.15625 l -12.79688,-13.5625 -2.21879,2.07809 c -0.53907,0.52343 -0.9375,1.05859 -1.1875,1.60937 -0.25,0.54297 -0.3125,1.16406 -0.1875,1.85938 0.125,0.69922 0.44531,1.48437 0.95312,2.35937 0.51172,0.875 1.24219,1.88672 2.1875,3.03125 l -1.59375,1.375 -7,-7.42187 18.17188,-17.125 z m 0,0"
       style="fill:#231f20;fill-opacity:1;fill-rule:nonzero;stroke:none;stroke-width:1.33333"
       aria-label="T" /><path
       id="path28"
       d="m 398.41019,170.10935 -1.85937,1.40625 c -2.08594,-2.64453 -4.19922,-3.25781 -6.34375,-1.84375 l -6.21879,4.12495 4.4375,6.68751 3.17185,-2.09378 c 1.10156,-0.7383 0.99219,-2.28125 -0.32812,-4.625 l 1.76563,-1.17187 5.32812,8.9375 -1.6875,1.125 c -1.71869,-2.16399 -3.07026,-2.92571 -4.04682,-2.28118 l -2.96875,1.96875 5.10938,7.73437 5.21875,-3.45312 c 3.11328,-2.0625 3.52344,-5.1875 1.23438,-9.375 l 2.125,-1.14062 4.57812,8.35937 -18.4375,12.21875 -1.0625,-1.60937 c 1.64453,-1.09376 2.17968,-2.06641 1.60937,-2.92188 l -9.82812,-14.84375 c -0.5625,-0.84375 -1.66406,-0.71875 -3.3125,0.375 l -1.07812,-1.64063 18.43746,-12.2188 z m 0,0"
       style="fill:#231f20;fill-opacity:1;fill-rule:nonzero;stroke:none;stroke-width:1.33333"
       aria-label=" E" /><path
       id="path29"
       d="m 434.16799,166.53513 c 0.50005,0.99998 0.62891,1.98047 0.39063,2.9375 -0.23047,0.94922 -1.03906,1.77735 -2.42188,2.48438 -1.54296,0.78125 -2.82812,0.97656 -3.85937,0.57812 -1.02344,-0.39453 -1.80469,-1.125 -2.34375,-2.1875 l -1.12505,-2.23435 c -0.8437,-1.66408 -1.69917,-2.75393 -2.56245,-3.26565 -0.85547,-0.51953 -1.91797,-0.46093 -3.1875,0.17188 l -4.51562,2.29687 3.79687,7.48438 c 0.45703,0.90625 1.78516,0.80469 3.98438,-0.3125 l 0.875,1.73437 -10.5,5.3125 -0.875,-1.73437 c 1.76953,-0.89453 2.42578,-1.79688 1.96875,-2.70313 l -8.04688,-15.87498 c -0.46875,-0.90625 -1.58594,-0.91015 -3.35937,-0.0156 l -0.89063,-1.76563 12.73438,-6.45311 c 0.96876,-0.48826 1.95312,-0.89845 2.95313,-1.23438 0.99999,-0.34375 1.95702,-0.5 2.87499,-0.46875 0.92579,0.0234 1.78907,0.28906 2.59375,0.79688 0.80079,0.5 1.50391,1.34375 2.10938,2.53125 0.38281,0.77343 0.60156,1.51172 0.65625,2.21875 0.0625,0.71093 0.004,1.37109 -0.17188,1.98437 -0.16797,0.61719 -0.43359,1.17969 -0.79687,1.6875 -0.36719,0.5 -0.78125,0.9492 -1.25,1.34373 0.59375,-0.082 1.17187,-0.0859 1.73437,-0.0156 0.5625,0.0742 1.10157,0.26172 1.625,0.5625 0.51953,0.30468 1.00782,0.73437 1.46875,1.29687 0.46875,0.55469 0.92579,1.26563 1.375,2.14063 l 1.37496,2.7344 c 0.2265,0.42971 0.48437,0.70312 0.76562,0.82812 0.28125,0.11719 0.5625,0.10547 0.84375,-0.0312 0.30078,-0.15624 0.48438,-0.38281 0.54688,-0.6875 0.0703,-0.30078 -0.008,-0.66406 -0.23438,-1.09375 l -0.71871,-1.42189 1.57812,-0.79687 z m -24.20312,-8.23435 3.5625,7.01561 4.87499,-2.46877 c 1.1875,-0.60156 1.95703,-1.33594 2.3125,-2.20311 0.35156,-0.87499 0.20312,-1.96093 -0.45313,-3.26562 -1.16796,-2.28125 -2.97656,-2.79687 -5.42187,-1.54687 z m 0,0"
       style="fill:#231f20;fill-opacity:1;fill-rule:nonzero;stroke:none;stroke-width:1.33333"
       aria-label="R" /><path
       id="path30"
       d="m 461.23831,157.2578 c 0.4375,0.55469 1.41015,0.5586 2.92187,0.0156 l 0.65623,1.82813 -11.48438,4.12498 -0.65622,-1.82813 2.76562,-0.99998 c 0.60156,-0.21875 0.83203,-0.51953 0.6875,-0.90625 -0.0235,-0.0703 -0.0937,-0.17578 -0.21875,-0.3125 l -2.46875,-2.92187 -9.64063,3.46874 -0.0156,3.53123 c 0,0.14844 0.0195,0.28907 0.0625,0.42188 0.19531,0.53125 0.75781,0.63281 1.6875,0.29687 l 1.9375,-0.70312 0.65625,1.82813 -8.5625,3.07812 -0.67188,-1.85938 c 0.88282,-0.31249 1.50782,-0.61328 1.875,-0.90625 0.36328,-0.30078 0.53907,-0.61328 0.53125,-0.9375 l 0.45313,-23.3906 4.54688,-1.64062 z m -17.4375,-0.15625 8.03125,-2.89062 -7.96875,-9.625 z m 0,0"
       style="fill:#231f20;fill-opacity:1;fill-rule:nonzero;stroke:none;stroke-width:1.33333"
       aria-label="A" /><path
       id="path31"
       d="m 511.39064,126.84765 c -1.98048,0.30464 -2.89063,0.96093 -2.73438,1.96875 l 2.68748,17.59375 c 0.1445,1 1.20703,1.35156 3.1875,1.04687 l 0.29691,1.92187 -10.79687,1.65625 -0.29692,-1.92186 c 1.94532,-0.30078 2.84766,-0.95313 2.70313,-1.95313 l -2.6406,-17.28126 -4.06249,21.79688 -4.26562,0.65625 -10.375,-19.59375 2.64062,17.28125 c 0.14453,1 1.19531,1.35156 3.15625,1.04688 l 0.29687,1.92187 -8.60937,1.3125 -0.29688,-1.92187 c 1.95704,-0.30079 2.86329,-0.95313 2.71875,-1.95313 l -2.6875,-17.59375 c -0.15624,-1.00781 -1.21093,-1.36328 -3.17187,-1.0625 l -0.29688,-1.95312 9.82813,-1.5 9.45312,18.25 3.57812,-20.23438 9.39063,-1.43745 z m 0,0"
       style="fill:#231f20;fill-opacity:1;fill-rule:nonzero;stroke:none;stroke-width:1.33333"
       aria-label=" M" /><path
       id="path32"
       d="m 545.38674,126.01562 c -2,0.043 -2.9961,0.57422 -2.98438,1.59375 l 0.1875,11.14063 c 0.0312,1.66797 -0.125,3.16796 -0.46875,4.5 -0.34375,1.32422 -0.91406,2.44531 -1.70313,3.35937 -0.78125,0.91797 -1.8125,1.625 -3.09375,2.125 -1.27343,0.5 -2.82812,0.76563 -4.67187,0.79688 -1.86718,0.0312 -3.46875,-0.17969 -4.8125,-0.625 -1.34375,-0.45703 -2.45312,-1.13282 -3.32812,-2.03125 -0.875,-0.89453 -1.51563,-2 -1.92188,-3.3125 -0.40625,-1.3125 -0.625,-2.80079 -0.65625,-4.46875 l -0.18749,-11.14063 c -0.0117,-1.01953 -1.00781,-1.51562 -2.98438,-1.48438 l -0.0312,-1.96875 11.65625,-0.20313 0.0313,1.96875 c -1.26172,0.0234 -2.17188,0.16797 -2.73438,0.4375 -0.5625,0.26172 -0.84375,0.64844 -0.84375,1.15625 l 0.1875,11.14063 c 0.0195,1.33593 0.13281,2.48437 0.34375,3.45312 0.21875,0.96875 0.57031,1.77344 1.0625,2.40625 0.5,0.625 1.15625,1.08984 1.96875,1.39063 0.82031,0.29296 1.85156,0.42968 3.09375,0.40625 1.22656,-0.0195 2.2539,-0.19141 3.07812,-0.51563 0.83203,-0.32031 1.49219,-0.80469 1.98438,-1.45312 0.5,-0.64454 0.84375,-1.45704 1.03125,-2.4375 0.19531,-0.97657 0.28515,-2.13282 0.26562,-3.46875 l -0.18749,-11.14063 c -5e-5,-0.50781 -0.29297,-0.88281 -0.875,-1.125 -0.58594,-0.25 -1.50782,-0.36328 -2.76563,-0.34375 l -0.0313,-1.96875 9.35938,-0.15625 z m 0,0"
       style="fill:#231f20;fill-opacity:1;fill-rule:nonzero;stroke:none;stroke-width:1.33333"
       aria-label="U" /><path
       id="path33"
       d="m 575.21097,134.96874 -2.45312,-0.0156 c -0.25,-1.90625 -0.94533,-3.48828 -2.07815,-4.75 -1.125,-1.26953 -2.67187,-2.00782 -4.64062,-2.21875 -1.46875,-0.15625 -2.75,-0.0312 -3.84375,0.375 -1.08594,0.39843 -2.00781,1.01172 -2.76563,1.84375 -0.76172,0.83593 -1.36718,1.85937 -1.8125,3.07812 -0.4375,1.21094 -0.73437,2.55469 -0.89062,4.03125 -0.19922,1.83594 -0.17188,3.39844 0.0781,4.6875 0.25,1.29297 0.6875,2.35938 1.3125,3.20313 0.63282,0.84375 1.42969,1.49609 2.39063,1.95312 0.95703,0.44922 2.05078,0.73438 3.28125,0.85938 0.85156,0.0937 1.67969,0.0703 2.48437,-0.0781 0.8125,-0.14453 1.52344,-0.39062 2.14063,-0.73437 0.625,-0.34375 1.13281,-0.76953 1.53125,-1.28125 0.40625,-0.50781 0.64062,-1.07031 0.70312,-1.6875 l 0.18756,-1.71875 c 0.10151,-1.01953 -0.83985,-1.63281 -2.82813,-1.84375 l 0.20311,-1.92187 10.15627,1.07812 -0.20311,1.92188 c -1.99219,-0.20704 -3.03906,0.19922 -3.14063,1.21875 l -0.92192,8.57812 -3.34377,-0.35938 -0.46875,-2.53125 c -0.35547,0.34375 -0.79297,0.66407 -1.3125,0.96875 -0.52344,0.30078 -1.125,0.55469 -1.8125,0.76563 -0.67969,0.21875 -1.44531,0.36328 -2.29688,0.4375 -0.84375,0.082 -1.76562,0.0703 -2.76562,-0.0312 -1.5625,-0.16797 -3.04688,-0.57031 -4.45313,-1.20313 -1.40625,-0.63672 -2.61718,-1.52343 -3.625,-2.67187 -1,-1.14453 -1.74609,-2.55078 -2.23437,-4.21875 -0.49219,-1.67578 -0.61719,-3.65625 -0.375,-5.9375 0.25,-2.25 0.78906,-4.15625 1.625,-5.71875 0.83203,-1.5625 1.875,-2.80469 3.125,-3.73438 1.25781,-0.92578 2.67969,-1.5625 4.26562,-1.90625 1.58203,-0.34375 3.23438,-0.42187 4.95313,-0.23437 1.78905,0.18756 3.29687,0.61718 4.51562,1.28125 1.21875,0.66796 2.10156,1.38281 2.65627,2.14062 l 1.07813,-2.01562 2.45312,0.26568 z m 0,0"
       style="fill:#231f20;fill-opacity:1;fill-rule:nonzero;stroke:none;stroke-width:1.33333"
       aria-label="G" /><path
       id="path34"
       d="m 607.793,141.8125 -2.42188,-0.32813 c -0.0117,-1.91406 -0.50781,-3.57031 -1.48437,-4.96875 -0.96875,-1.39453 -2.41406,-2.32031 -4.32813,-2.78125 -1.4375,-0.33202 -2.71875,-0.36719 -3.84375,-0.10937 -1.125,0.25 -2.12109,0.74218 -2.98437,1.46875 -0.86719,0.73046 -1.59375,1.67187 -2.1875,2.82812 -0.58594,1.15625 -1.04688,2.46094 -1.39063,3.90625 -0.42968,1.79297 -0.59375,3.34375 -0.5,4.65625 0.0937,1.3125 0.39844,2.4336 0.92188,3.35938 0.51953,0.91797 1.22266,1.65625 2.10937,2.21875 0.89454,0.5625 1.94141,0.98437 3.14063,1.26562 0.83203,0.19531 1.66016,0.27344 2.48437,0.23438 0.82032,-0.043 1.5625,-0.19922 2.21875,-0.46875 0.65625,-0.27344 1.21094,-0.63282 1.67188,-1.07813 0.46875,-0.45703 0.77344,-0.98828 0.92187,-1.59375 l 0.39058,-1.67188 c 0.23828,-1.00782 -0.61718,-1.74219 -2.5625,-2.20313 l 0.43751,-1.85937 9.92187,2.35937 -0.4375,1.85937 c -1.94922,-0.46874 -3.04297,-0.19531 -3.28125,0.8125 l -1.98438,8.39063 -3.26562,-0.76562 -0.15621,-2.57812 c -0.38671,0.28906 -0.85937,0.55469 -1.42187,0.79688 -0.55469,0.23828 -1.18359,0.42187 -1.89063,0.54687 -0.69921,0.13281 -1.47656,0.1875 -2.32812,0.15625 -0.85547,-0.0312 -1.76563,-0.16406 -2.73437,-0.39062 -1.53126,-0.36719 -2.96094,-0.94922 -4.28126,-1.75 -1.3125,-0.80469 -2.39843,-1.83594 -3.25,-3.09375 -0.85546,-1.25782 -1.42187,-2.75 -1.70312,-4.46875 -0.27344,-1.72657 -0.14063,-3.70704 0.39062,-5.9375 0.51954,-2.20704 1.28907,-4.03125 2.3125,-5.46875 1.01954,-1.44532 2.21094,-2.55079 3.57813,-3.3125 1.36328,-0.76954 2.85156,-1.22657 4.46875,-1.375 1.61328,-0.14454 3.25781,-0.0156 4.9375,0.39062 1.75782,0.40623 3.20312,1.02344 4.32812,1.84375 1.125,0.8125 1.91407,1.63281 2.375,2.45312 l 1.3125,-1.85937 2.40625,0.57816 z m 0,0"
       style="fill:#231f20;fill-opacity:1;fill-rule:nonzero;stroke:none;stroke-width:1.33333"
       aria-label="G" /><path
       id="path35"
       d="m 635.04691,165.71091 c -0.0312,0.70703 0.70312,1.34375 2.20312,1.90625 l -0.67188,1.8125 -11.42188,-4.28125 0.67189,-1.8125 2.75,1.03125 c 0.60156,0.22656 0.98437,0.14453 1.14062,-0.25 0.0196,-0.0625 0.0234,-0.19532 0.0156,-0.39062 l 0.0312,-3.82811 -9.59375,-3.57813 -2.32812,2.67188 c -0.0937,0.11719 -0.16406,0.23438 -0.20313,0.35938 -0.21094,0.53906 0.14454,0.98437 1.0625,1.32812 l 1.9375,0.71873 -0.67187,1.8125 -8.51562,-3.18748 0.6875,-1.84375 c 0.87499,0.32422 1.54686,0.49219 2.01561,0.5 0.47657,0.0117 0.81641,-0.10937 1.01563,-0.35937 l 15.48437,-17.54688 4.53124,1.68754 z m -13.1875,-11.40623 7.98437,3 0.14063,-12.48438 z m 0,0"
       style="fill:#231f20;fill-opacity:1;fill-rule:nonzero;stroke:none;stroke-width:1.33333"
       aria-label="A" /><path
       id="path36"
       d="m 665.30862,180.03904 c -0.52338,0.98831 -1.24218,1.66016 -2.15625,2.01563 -0.90625,0.36328 -2.05468,0.1875 -3.4375,-0.53125 -1.53125,-0.80469 -2.43749,-1.73438 -2.71875,-2.79688 -0.27343,-1.05469 -0.125,-2.10938 0.4375,-3.17188 l 1.15626,-2.21874 c 0.86328,-1.64844 1.25781,-2.97266 1.18749,-3.98438 -0.0742,-1.00781 -0.74609,-1.84375 -2.01562,-2.5 l -4.48437,-2.34375 -3.89063,7.4375 c -0.48046,0.90625 0.375,1.92968 2.5625,3.07812 l -0.89062,1.71875 -10.42188,-5.45312 0.89063,-1.71875 c 1.75,0.91797 2.86328,0.92187 3.34375,0.0156 l 8.24999,-15.7656 c 0.46875,-0.90625 -0.17187,-1.81641 -1.92187,-2.73438 l 0.92187,-1.73437 12.64066,6.60931 c 0.95703,0.50001 1.86327,1.0586 2.71875,1.67188 0.86328,0.60547 1.55078,1.29297 2.0625,2.0625 0.51953,0.77344 0.80468,1.63281 0.85937,2.5781 0.0508,0.94922 -0.23047,2.01172 -0.84375,3.18751 -0.4062,0.77346 -0.88281,1.38671 -1.42187,1.84375 -0.53125,0.44921 -1.10157,0.78125 -1.70313,1 -0.60547,0.21093 -1.21875,0.31249 -1.84375,0.3125 -0.625,0 -1.23437,-0.0781 -1.82812,-0.23438 0.42578,0.4375 0.76953,0.91406 1.03125,1.42188 0.25781,0.5 0.41406,1.03906 0.46875,1.625 0.0508,0.59375 -0.0117,1.24218 -0.1875,1.95312 -0.17969,0.70703 -0.49219,1.49219 -0.9375,2.35938 l -1.42188,2.71875 c -0.23051,0.42576 -0.3125,0.78906 -0.25,1.09375 0.0625,0.30078 0.23438,0.52343 0.51563,0.67187 0.28906,0.15625 0.57812,0.17188 0.85937,0.0469 0.28906,-0.11719 0.55078,-0.38672 0.78125,-0.8125 l 0.73436,-1.42189 1.56249,0.81251 z m -7.34374,-24.48436 -3.65625,6.98436 4.84372,2.5313 c 1.1875,0.61719 2.23438,0.8125 3.14063,0.59375 0.91406,-0.21875 1.71093,-0.97266 2.39062,-2.26562 1.1875,-2.26952 0.5625,-4.03905 -1.875,-5.31249 z m 0,0"
       style="fill:#231f20;fill-opacity:1;fill-rule:nonzero;stroke:none;stroke-width:1.33333"
       aria-label="R" /><path
       id="path37"
       d="m 706.543,191.45701 c 2.40625,-1.56251 4.7539,-2.32032 7.04687,-2.28125 2.30078,0.043 4.44141,0.87499 6.42187,2.49999 2.34375,1.92969 3.63282,4.19141 3.87501,6.79688 0.24999,2.60156 -0.59376,5.07813 -2.53125,7.42188 -1.69923,2.07031 -3.5586,3.32812 -5.57813,3.76562 -2.02344,0.44531 -4.92969,0.10156 -8.71875,-1.03125 l -0.48437,-0.14062 c -6.21094,-1.84375 -10.78907,-1.97657 -13.73438,-0.39063 0.97656,-3.23047 -0.0273,-7.69531 -3.01562,-13.39062 -0.10547,-0.20704 -0.19532,-0.36719 -0.26563,-0.48438 -1.84375,-3.5 -2.75,-6.27344 -2.71875,-8.32812 0.0391,-2.05079 0.92188,-4.125 2.64063,-6.21875 1.9375,-2.34376 4.20703,-3.64454 6.8125,-3.90626 2.61328,-0.25781 5.08593,0.57422 7.42187,2.50001 1.97654,1.63674 3.20703,3.57421 3.6875,5.8125 0.47656,2.23046 0.19141,4.68749 -0.85937,7.375 z m 0,0"
       style="fill:#231f20;fill-opacity:1;fill-rule:nonzero;stroke:none;stroke-width:1.33333"
       aria-label=" ❤" /><path
       id="path38"
       d="m 754.27347,231.75779 c 0.72656,0.9375 1.35938,1.87109 1.89062,2.79687 0.53907,0.92579 0.87891,1.83204 1.01563,2.71875 0.14453,0.88282 0.0312,1.75782 -0.34375,2.625 -0.36719,0.86329 -1.07813,1.70704 -2.14063,2.53126 -0.57421,0.44531 -1.16796,0.74218 -1.78125,0.89062 -0.61718,0.15625 -1.22656,0.19141 -1.82812,0.10937 -0.60547,-0.0859 -1.20313,-0.26171 -1.79688,-0.53125 -0.59375,-0.27343 -1.15234,-0.60937 -1.67187,-1.01562 1.07031,1.70703 1.56641,3.30469 1.48437,4.79688 -0.0859,1.48828 -0.83984,2.78515 -2.26562,3.89062 -1.10547,0.85156 -2.15625,1.39453 -3.15625,1.625 -0.99219,0.23828 -1.96094,0.21875 -2.90625,-0.0625 -0.94922,-0.27344 -1.88281,-0.79687 -2.79688,-1.57813 -0.91796,-0.78124 -1.83984,-1.78125 -2.76562,-3 l -9.10938,-11.75 1.53125,-1.1875 c 1.21875,1.57032 2.23438,2.04688 3.04688,1.42188 l 13.98437,-10.82813 c 0.8125,-0.625 0.60938,-1.72265 -0.60937,-3.29687 l 1.625,-1.26563 z m -13.85938,3.15625 -7.1875,5.57812 3.84376,4.96875 c 0.51953,0.67578 1.05469,1.17578 1.60937,1.5 0.55078,0.32031 1.10157,0.5 1.65625,0.53125 0.5625,0.0391 1.11719,-0.0625 1.67188,-0.3125 0.5625,-0.24219 1.12891,-0.57812 1.70312,-1.01562 1.21872,-0.93755 1.84766,-1.91797 1.89063,-2.9375 0.0391,-1.02344 -0.40625,-2.13672 -1.34375,-3.34375 z m 7.90625,-6.10938 -6.14062,4.75 3.31254,4.28122 c 0.8125,1.05078 1.67578,1.64453 2.59375,1.78125 0.92578,0.13281 1.94141,-0.22656 3.04688,-1.07812 1.00781,-0.78125 1.53906,-1.63672 1.59375,-2.5625 0.0508,-0.91797 -0.3125,-1.87891 -1.09375,-2.89063 z m 0,0"
       style="fill:#231f20;fill-opacity:1;fill-rule:nonzero;stroke:none;stroke-width:1.33333"
       aria-label=" B" /><path
       id="path39"
       d="m 760.54299,279.78123 c -0.96094,0.5703 -1.92968,0.77344 -2.90625,0.60937 -0.96875,-0.15625 -1.85547,-0.90625 -2.65625,-2.25 -0.88672,-1.48047 -1.16797,-2.74609 -0.84375,-3.79687 0.32032,-1.04297 1,-1.8711 2.03125,-2.48438 l 2.14063,-1.29687 c 1.60153,-0.96099 2.6289,-1.88672 3.07812,-2.78125 0.45703,-0.89844 0.32032,-1.95313 -0.40625,-3.17188 l -2.59374,-4.34375 -7.20313,4.3125 c -0.875,0.51953 -0.68359,1.83594 0.57813,3.95313 l -1.65625,1 -6.03125,-10.09375 1.65625,-1 c 1.00781,1.69531 1.95312,2.28515 2.82812,1.76562 l 15.28125,-9.14063 c 0.875,-0.51953 0.80468,-1.62891 -0.20313,-3.32813 l 1.68749,-1.01562 7.31253,12.23436 c 0.56247,0.9258 1.04687,1.875 1.45312,2.84375 0.41407,0.97656 0.64063,1.92969 0.67188,2.85937 0.0391,0.92579 -0.16406,1.80469 -0.60938,2.64063 -0.44921,0.83203 -1.24609,1.59375 -2.39062,2.28125 -0.74219,0.44531 -1.46094,0.72265 -2.15625,0.82812 -0.69922,0.10157 -1.35937,0.0859 -1.98438,-0.0469 -0.625,-0.125 -1.20312,-0.35547 -1.73437,-0.6875 -0.53125,-0.32422 -1.01171,-0.71094 -1.43749,-1.15625 0.125,0.59375 0.16406,1.17187 0.125,1.73438 -0.0312,0.57031 -0.17969,1.125 -0.4375,1.65625 -0.26172,0.53125 -0.65234,1.05078 -1.17188,1.5625 -0.52343,0.50781 -1.20312,1.01562 -2.04687,1.51562 l -2.62497,1.57817 c -0.41797,0.25 -0.67969,0.51954 -0.78125,0.8125 -0.10547,0.28906 -0.0742,0.56641 0.0937,0.82813 0.16406,0.28906 0.39843,0.45703 0.70312,0.5 0.30078,0.0508 0.66016,-0.0469 1.07813,-0.29688 l 1.37499,-0.81251 0.92188,1.51562 z m 6.51562,-24.70313 -6.74999,4.04688 2.79688,4.68749 c 0.68748,1.14454 1.47265,1.85938 2.35936,2.14063 0.89453,0.28906 1.96875,0.0625 3.21875,-0.6875 2.19531,-1.3125 2.58594,-3.14844 1.17188,-5.5 z m 0,0"
       style="fill:#231f20;fill-opacity:1;fill-rule:nonzero;stroke:none;stroke-width:1.33333"
       aria-label="R" /><path
       id="path40"
       d="m 784.02736,298.48044 -1.07812,-2.0625 c 2.9375,-1.61718 3.8789,-3.60156 2.82812,-5.95312 l -3.07813,-6.79687 -7.32813,3.29687 1.56248,3.45313 c 0.55082,1.21874 2.09375,1.36328 4.625,0.4375 l 0.87503,1.92187 -9.6875,3.8125 -0.84374,-1.84376 c 2.41406,-1.35547 3.38281,-2.57031 2.90625,-3.64062 l -1.46875,-3.23438 -8.45311,3.8125 2.57811,5.70313 c 1.53125,3.40625 4.55078,4.3125 9.0625,2.71875 l 0.76562,2.28125 -8.98437,3.17187 -9.09375,-20.17187 1.76563,-0.79687 c 0.8125,1.80078 1.67968,2.49219 2.60937,2.07812 l 16.23437,-7.31249 c 0.92578,-0.41407 0.98437,-1.52344 0.17187,-3.32813 l 1.79688,-0.8125 9.0938,20.17185 z m 0,0"
       style="fill:#231f20;fill-opacity:1;fill-rule:nonzero;stroke:none;stroke-width:1.33333"
       aria-label="E" /><path
       id="path41"
       d="m 803.17189,340.54685 c -0.25004,-0.84373 -0.54297,-1.4375 -0.875,-1.78125 -0.32422,-0.34375 -0.6875,-0.50781 -1.09375,-0.48437 l -22.4375,-0.17188 -1.35938,-4.67187 14,-9.48438 -16.92187,-0.5625 -1.35938,-4.71875 18.92188,-11.85937 c 0.32031,-0.21875 0.53906,-0.57032 0.65625,-1.0625 0.125,-0.5 0.0937,-1.06641 -0.0937,-1.70313 l 1.89062,-0.5625 3.03129,10.42187 -1.89063,0.5625 -0.65625,-2.26563 c -0.17963,-0.57423 -0.45312,-0.80859 -0.82812,-0.70312 l -16.10938,9.8125 17.5625,0.14062 c 0.12501,-0.0117 0.22657,-0.0273 0.3125,-0.0469 0.082,-0.0117 0.16407,-0.0273 0.25,-0.0469 0.89453,-0.26172 1.11719,-1.16797 0.67188,-2.71875 l 1.89062,-0.5625 2.87495,9.89064 -1.89062,0.5625 -0.67192,-2.28124 c -0.0859,-0.3047 -0.19921,-0.48437 -0.34375,-0.54687 -0.13672,-0.0625 -0.3125,-0.0625 -0.53125,0 -0.30469,0.082 -0.65234,0.26953 -1.04687,0.5625 l -14.79688,9.76562 18.1875,-0.20312 c 0.0625,0 0.20313,-0.0312 0.42188,-0.0937 0.53125,-0.14842 0.67578,-0.64062 0.4375,-1.48437 l -0.45313,-1.5625 1.89063,-0.56251 2.28125,7.85938 z m 0,0"
       style="fill:#231f20;fill-opacity:1;fill-rule:nonzero;stroke:none;stroke-width:1.33333"
       aria-label="W" /><path
       id="path42"
       d="m 801.87892,370.55857 -0.48437,-2.29687 c 3.28906,-0.73047 4.75391,-2.3711 4.39063,-4.92188 l -1.06246,-7.39063 -7.95312,1.125 0.54693,3.76562 c 0.1875,1.3125 1.61719,1.87891 4.29688,1.70312 l 0.29688,2.09375 -10.34375,0.96875 -0.28124,-2.01562 c 2.67566,-0.60546 3.92956,-1.49218 3.7655,-2.65624 l -0.5,-3.53125 -9.17187,1.3125 0.89063,6.20313 c 0.53125,3.6875 3.17968,5.39453 7.95312,5.125 l 0.10938,2.39063 -9.51563,0.5625 -3.14063,-21.90626 1.92188,-0.28125 c 0.28125,1.95703 0.92578,2.86719 1.9375,2.73438 l 17.60937,-2.53125 c 1.00781,-0.13672 1.375,-1.17969 1.09375,-3.14063 l 1.95312,-0.28125 3.14063,21.90625 z m 0,0"
       style="fill:#231f20;fill-opacity:1;fill-rule:nonzero;stroke:none;stroke-width:1.33333"
       aria-label="E" /><path
       id="path43"
       d="m 810.51564,390.96875 c 0.0508,2.01953 -0.0547,3.79687 -0.3125,5.32812 -0.26171,1.53906 -0.79687,2.83594 -1.60937,3.89063 -0.8125,1.0625 -1.98047,1.86718 -3.5,2.42187 -1.51172,0.55078 -3.5,0.86328 -5.96875,0.9375 -2.51172,0.0625 -4.60938,-0.14062 -6.29688,-0.60937 -1.67968,-0.46094 -3.03125,-1.19532 -4.0625,-2.20313 -1.02343,-1.01172 -1.76562,-2.27734 -2.23437,-3.79687 -0.46094,-1.51172 -0.71484,-3.27735 -0.76563,-5.29688 l -0.35937,-13 1.9375,-0.0469 c 0.0508,1.97657 0.58594,2.95313 1.60937,2.92188 l 17.79688,-0.48437 c 1.00781,-0.0234 1.48828,-1.02344 1.4375,-3 l 1.96875,-0.0625 z m -2.78125,-4.85938 -19.51562,0.53126 0.14062,5.46875 c 0.0391,1.23828 0.30078,2.26562 0.78125,3.07812 0.47656,0.82031 1.16016,1.47266 2.04688,1.95313 0.89453,0.47656 1.98828,0.80078 3.28125,0.96875 1.30078,0.16406 2.77343,0.22656 4.42187,0.1875 1.63281,-0.043 3.03125,-0.1836 4.1875,-0.42188 1.16406,-0.24219 2.10938,-0.62109 2.82813,-1.14062 0.71875,-0.51172 1.23437,-1.1875 1.54687,-2.03125 0.32031,-0.84375 0.46094,-1.88672 0.42188,-3.125 z m 0,0"
       style="fill:#231f20;fill-opacity:1;fill-rule:nonzero;stroke:none;stroke-width:1.33333"
       aria-label="D" /><path
       id="path44"
       d="m 805.94533,436.99216 c 0.23823,-1.96094 -0.14844,-3 -1.15625,-3.125 l -17.67188,-2.15625 c -1.01171,-0.125 -1.63671,0.78906 -1.875,2.75 l -1.92187,-0.23438 1.34375,-10.98435 1.92187,0.23437 c -0.24218,1.98828 0.14454,3.04686 1.15625,3.17186 l 17.67188,2.15625 c 1.00781,0.125 1.63281,-0.8086 1.875,-2.79688 l 1.95312,0.23438 -1.34375,10.98437 z m 0,0"
       style="fill:#231f20;fill-opacity:1;fill-rule:nonzero;stroke:none;stroke-width:1.33333"
       aria-label=" I" /><path
       id="path45"
       d="m 799.14064,471.03513 c 0.42579,-1.91797 0.14453,-2.99219 -0.84375,-3.21875 l -20.76562,-4.60938 1.34375,-6.03125 22.23437,-7.92187 -16.125,-3.59375 c -0.99999,-0.21876 -1.71484,0.64062 -2.14062,2.57812 l -1.89062,-0.42187 1.89062,-8.5 1.89062,0.42187 c -0.42968,1.9375 -0.14062,3.01563 0.85938,3.23438 l 17.375,3.85937 c 0.98828,0.22657 1.69531,-0.625 2.125,-2.5625 l 1.92187,0.42188 -1.9375,8.71875 -22.76562,8.03125 16.57812,3.67188 c 0.98829,0.22655 1.70313,-0.62109 2.14063,-2.54688 l 1.92188,0.42184 -1.89065,8.46874 z m 0,0"
       style="fill:#231f20;fill-opacity:1;fill-rule:nonzero;stroke:none;stroke-width:1.33333"
       aria-label="N" /><path
       id="path46"
       d="m 781.50001,517.582 c 0.78121,-1.83595 0.70313,-2.94921 -0.23437,-3.34375 l -16.375,-6.99996 c -0.93748,-0.3985 -1.79688,0.32031 -2.57813,2.15625 l -1.78123,-0.76566 4.40624,-10.32813 1.78123,0.76566 c -0.82031,1.91406 -0.76563,3.07031 0.17187,3.46875 l 7.62501,3.26562 4.4375,-10.39062 -7.62501,-3.26562 c -0.9375,-0.39844 -1.8164,0.36718 -2.64062,2.29687 l -1.78125,-0.76562 4.40625,-10.29688 1.78125,0.76563 c -0.78125,1.8125 -0.70313,2.91406 0.23437,3.3125 l 16.375,7 c 0.9375,0.39453 1.79688,-0.3125 2.57813,-2.125 l 1.8125,0.78125 -4.40629,10.29686 -1.8125,-0.78124 c 0.82036,-1.92967 0.76563,-3.08985 -0.17187,-3.48438 l -6.5,-2.78125 -4.4375,10.39062 6.5,2.78125 c 0.93748,0.39458 1.81641,-0.36719 2.64063,-2.28125 l 1.81252,0.78119 -4.40629,10.32811 z m 0,0"
       style="fill:#231f20;fill-opacity:1;fill-rule:nonzero;stroke:none;stroke-width:1.33333"
       aria-label=" H" /><path
       id="path47"
       d="m 748.88674,534.76951 c -0.6875,-0.14843 -1.4375,0.47266 -2.25,1.85938 l -1.67185,-0.98441 6.1875,-10.51563 1.67185,0.98441 -1.5,2.53125 c -0.32031,0.55078 -0.30469,0.92969 0.0469,1.14063 0.0742,0.039 0.20313,0.0703 0.39063,0.0937 l 3.78125,0.67187 5.17187,-8.82812 -2.25,-2.73438 c -0.0937,-0.11719 -0.20313,-0.20312 -0.32813,-0.26562 -0.48828,-0.29297 -0.98437,-0.0156 -1.48437,0.82812 l -1.03126,1.78125 -1.67187,-0.98437 4.59375,-7.84375 1.70312,1 c -0.46873,0.8125 -0.74998,1.44531 -0.84373,1.90625 -0.0859,0.45703 -0.0274,0.8125 0.17187,1.0625 l 14.64062,18.25 -2.43753,4.17186 z m 13.51563,-11.04687 -4.32813,7.35937 12.26561,2.28125 z m 0,0"
       style="fill:#231f20;fill-opacity:1;fill-rule:nonzero;stroke:none;stroke-width:1.33333"
       aria-label="A" /><path
       id="path48"
       d="m 753.44143,562.48435 c 1.48829,-1.96875 1.82813,-3.26172 1.01563,-3.875 l -14.90625,-11.26562 -3.9375,5.20313 c -0.50781,0.67578 -0.86719,1.34765 -1.07813,2.01562 -0.21875,0.67578 -0.2539,1.375 -0.10937,2.09375 0.13672,0.72656 0.48047,1.48437 1.03125,2.26563 0.54297,0.78906 1.32812,1.64453 2.35937,2.5625 l -1.51562,1.60936 -7.09375,-6.35937 13.14062,-17.39063 1.54688,1.17188 c -1.1875,1.58203 -1.375,2.67969 -0.5625,3.29687 l 14.20312,10.73438 c 0.8125,0.61328 1.8125,0.12891 3,-1.45313 l 1.5625,1.1875 -7.09375,9.39063 z m 0,0"
       style="fill:#231f20;fill-opacity:1;fill-rule:nonzero;stroke:none;stroke-width:1.33333"
       aria-label="L" /><path
       id="path49"
       d="m 719.56644,600.14841 c 1.39843,-1.42968 1.73046,-2.5 1,-3.21875 l -12.7031,-12.45315 c -0.72656,-0.71094 -1.78906,-0.35157 -3.1875,1.07812 l -1.39061,-1.35939 7.64063,-7.79688 1.39061,1.3594 c -1.37501,1.40624 -1.69532,2.46093 -0.96875,3.17187 l 12.46871,12.23441 -9.85937,-19.875 3.03125,-3.09375 20.0625,9.45312 -12.46875,-12.23437 c -0.72656,-0.71094 -1.78516,-0.35938 -3.17187,1.04687 l -1.39063,-1.35937 6.09375,-6.21875 1.39063,1.35937 c -1.38282,1.41407 -1.71094,2.47657 -0.98438,3.1875 l 12.70312,12.45313 c 0.72657,0.71875 1.78516,0.36719 3.17188,-1.04687 l 1.40625,1.375 -6.95309,7.10941 -18.53125,-8.92187 9.29688,18.34375 -6.64063,6.78125 z m 0,0"
       style="fill:#231f20;fill-opacity:1;fill-rule:nonzero;stroke:none;stroke-width:1.33333"
       aria-label="M" /><path
       id="path50"
       d="m 693.86721,612.12889 1.57813,-1.625 c 0.82422,0.82031 1.67969,1.42187 2.5625,1.79687 0.88672,0.375 1.78125,0.55078 2.6875,0.53125 0.90625,-0.0117 1.80469,-0.20312 2.70312,-0.57812 0.89453,-0.36719 1.76953,-0.88672 2.625,-1.5625 1.28123,-1.02347 2.14453,-2.07032 2.59375,-3.14063 0.44532,-1.0625 0.28516,-2.07812 -0.48437,-3.04687 -0.46875,-0.59375 -1.03125,-0.91407 -1.6875,-0.95313 -0.65625,-0.0312 -1.38672,0.0937 -2.1875,0.375 -0.79297,0.28906 -1.64844,0.6875 -2.5625,1.1875 -0.91797,0.5 -1.85938,1 -2.82813,1.5 -0.96875,0.5 -1.95703,0.94141 -2.96875,1.32813 -1.00781,0.38281 -2.0039,0.60156 -2.98437,0.65625 -0.97656,0.0625 -1.92969,-0.10157 -2.85938,-0.48438 -0.92578,-0.38672 -1.80468,-1.10156 -2.64062,-2.14062 -0.82032,-1.04297 -1.35938,-2.08985 -1.60938,-3.14063 -0.25,-1.05469 -0.24218,-2.09375 0.0156,-3.125 0.26172,-1.02344 0.75781,-2.02344 1.48437,-3 0.73047,-0.98047 1.65625,-1.91797 2.78125,-2.8125 1.14844,-0.90625 2.24219,-1.57031 3.28125,-1.98437 1.04297,-0.41797 2.07032,-0.67969 3.07813,-0.78125 0.49219,-0.0312 0.875,-0.15625 1.15625,-0.375 0.125,-0.0937 0.21875,-0.375 0.28125,-0.84375 0.0547,-0.46094 0,-0.92969 -0.15625,-1.40625 l 1.75,-1.39063 5.67188,7.14062 -1.59375,1.54688 c -0.73047,-0.77344 -1.54688,-1.35547 -2.45313,-1.75 -0.90625,-0.39844 -1.84766,-0.60156 -2.82812,-0.60938 -0.97657,0 -1.99219,0.19532 -3.04688,0.59375 -1.05078,0.40625 -2.08203,1.00782 -3.09375,1.8125 -1.47656,1.17579 -2.375,2.36329 -2.6875,3.5625 -0.32031,1.20704 0.0156,2.4375 1.01563,3.6875 0.31252,0.40624 0.70312,0.64844 1.17187,0.73438 0.46875,0.082 0.98437,0.0469 1.54687,-0.10937 0.5625,-0.14844 1.16407,-0.375 1.79688,-0.6875 0.625,-0.30469 1.28125,-0.64844 1.96875,-1.03125 0.6875,-0.375 1.38672,-0.76172 2.09375,-1.15625 0.69922,-0.38672 1.39844,-0.73047 2.09375,-1.03125 0.9375,-0.41797 1.84375,-0.72657 2.71875,-0.92188 0.875,-0.1875 1.70312,-0.22656 2.48437,-0.10937 0.78125,0.11328 1.54688,0.39843 2.29688,0.85937 0.75,0.45703 1.47656,1.12891 2.1875,2.01563 0.53125,0.67578 0.9375,1.42578 1.21875,2.25 0.28906,0.83203 0.36719,1.70703 0.23437,2.625 -0.13672,0.92578 -0.51172,1.8789 -1.125,2.85937 -0.60547,0.98828 -1.53125,1.97656 -2.78125,2.96875 -1.16797,0.92578 -2.24218,1.59375 -3.21875,2 -0.98047,0.40625 -1.91406,0.67578 -2.79687,0.8125 -0.53125,0.082 -0.9375,0.23828 -1.21875,0.46875 -0.18754,0.14449 -0.32813,0.44141 -0.42188,0.89063 -0.0937,0.44531 -0.10156,0.86328 -0.0312,1.25 l -1.40627,1.12497 z m 0,0"
       style="fill:#231f20;fill-opacity:1;fill-rule:nonzero;stroke:none;stroke-width:1.33333"
       aria-label="S" /><path
       id="path51"
       d="m 666.07425,628.41404 1.73438,-1.20312 c 0.86719,1.20703 1.66406,2.16406 2.39062,2.875 0.71875,0.71875 1.40235,1.22265 2.04688,1.51562 0.63672,0.30078 1.25,0.39844 1.84375,0.29688 0.59375,-0.10547 1.21484,-0.35547 1.85937,-0.75 l 2.54685,-1.60942 -9.92188,-15.79688 c -0.53909,-0.86717 -1.66015,-0.76172 -3.35937,0.3125 l -1.03125,-1.64063 9.39062,-5.90625 1.03125,1.64063 c -1.67578,1.05078 -2.24218,2.00781 -1.70312,2.875 l 9.92187,15.79688 2.59375,-1.62501 c 0.63281,-0.39844 1.125,-0.83985 1.46875,-1.32813 0.34375,-0.49218 0.51953,-1.08984 0.53125,-1.79687 0.0195,-0.71094 -0.13672,-1.54297 -0.46875,-2.5 -0.32422,-0.96094 -0.83985,-2.09375 -1.54688,-3.40625 l 1.8125,-1.03125 5.4375,8.64062 -21.1406,13.2813 z m 0,0"
       style="fill:#231f20;fill-opacity:1;fill-rule:nonzero;stroke:none;stroke-width:1.33333"
       aria-label="T" /><path
       id="path52"
       d="m 637.96097,629.41405 c -0.48828,-0.51172 -1.45312,-0.41407 -2.89062,0.29687 l -0.85936,-1.73438 10.95312,-5.375 0.85936,1.73438 -2.64062,1.29688 c -0.58203,0.28125 -0.78516,0.60937 -0.60938,0.98437 0.0312,0.0703 0.125,0.17188 0.28126,0.29687 l 2.76562,2.64063 9.1875,-4.51563 -0.35938,-3.53125 c -0.0195,-0.13672 -0.0625,-0.26172 -0.125,-0.375 -0.25,-0.52344 -0.8125,-0.57031 -1.6875,-0.14063 l -1.84375,0.90625 -0.85937,-1.73438 8.15625,-4 0.85937,1.76563 c -0.84375,0.40626 -1.42578,0.77345 -1.75,1.10939 -0.32031,0.34375 -0.46094,0.67578 -0.42188,1 l 2.14063,23.29688 -4.34377,2.14058 z m 17.35937,-1.76563 -7.65624,3.75001 8.95312,8.67188 z m 0,0"
       style="fill:#231f20;fill-opacity:1;fill-rule:nonzero;stroke:none;stroke-width:1.33333"
       aria-label="A" /><path
       id="path53"
       d="m 625.89066,657.30468 c -1.90626,0.65621 -3.62891,1.08593 -5.17187,1.29687 -1.55079,0.21875 -2.95313,0.0977 -4.20313,-0.35937 -1.25781,-0.46094 -2.37891,-1.32813 -3.35937,-2.60938 -0.98829,-1.28125 -1.89063,-3.08984 -2.70313,-5.42187 -0.81255,-2.37499 -1.25,-4.4336 -1.3125,-6.17188 -0.0625,-1.74219 0.23438,-3.25 0.89063,-4.53125 0.64843,-1.28125 1.625,-2.375 2.9375,-3.28125 1.3125,-0.89845 2.92187,-1.67188 4.82812,-2.32813 l 12.28125,-4.25 0.64063,1.82812 c -1.86329,0.64453 -2.62891,1.45313 -2.29688,2.42188 l 5.8125,16.81251 c 0.33204,0.96875 1.42969,1.1289 3.29688,0.48437 l 0.64062,1.85938 z m 3.79688,-4.125 -6.37501,-18.45314 -5.17187,1.79689 c -1.17578,0.40625 -2.08203,0.95703 -2.71875,1.65625 -0.63281,0.70703 -1.04688,1.55469 -1.23438,2.54688 -0.1875,0.98828 -0.16015,2.125 0.0781,3.40625 0.23047,1.28906 0.60937,2.71875 1.14062,4.28125 0.543,1.53905 1.10157,2.82812 1.67188,3.85937 0.5625,1.03906 1.20312,1.82813 1.92187,2.35938 0.71094,0.53125 1.51172,0.82031 2.40625,0.875 0.89844,0.0508 1.9336,-0.125 3.10938,-0.53125 z m 0,0"
       style="fill:#231f20;fill-opacity:1;fill-rule:nonzero;stroke:none;stroke-width:1.33333"
       aria-label="D" /><path
       id="path54"
       d="m 570.26564,663.6914 c -0.51953,2.83203 -1.58593,5.0625 -3.20312,6.6875 -1.61328,1.63282 -3.69141,2.61328 -6.23438,2.9375 -3.00781,0.37497 -5.53906,-0.24609 -7.59375,-1.85937 -2.0625,-1.60547 -3.28125,-3.91406 -3.65625,-6.92188 -0.33203,-2.65625 0.0391,-4.87109 1.10938,-6.64062 1.0625,-1.77344 3.30859,-3.64844 6.73437,-5.625 l 0.42188,-0.26563 c 5.61719,-3.24219 8.85937,-6.48047 9.73437,-9.71875 1.66797,2.94531 5.59377,5.28906 11.78127,7.03125 0.23047,0.0625 0.41407,0.10938 0.54688,0.14063 3.8125,1.0625 6.45312,2.3125 7.92187,3.75 1.46875,1.44531 2.36719,3.51562 2.70313,6.20312 0.375,3.00782 -0.24219,5.54688 -1.84375,7.60938 -1.61328,2.07031 -3.91407,3.29687 -6.90625,3.67187 -2.55078,0.32032 -4.80078,-0.10937 -6.75,-1.29687 -1.95703,-1.1875 -3.5469,-3.08985 -4.76565,-5.70313 z m 0,0"
       style="fill:#231f20;fill-opacity:1;fill-rule:nonzero;stroke:none;stroke-width:1.33333"
       aria-label=" ❤" /><path
       id="path55"
       d="m 0,0 c 0,96.301 -78.067,174.368 -174.368,174.368 -96.3,0 -174.367,-78.067 -174.367,-174.368 0,-96.301 78.067,-174.368 174.367,-174.368 C -78.067,-174.368 0,-96.301 0,0 Z"
       style="fill:none;stroke:#231f20;stroke-width:4.252;stroke-linecap:butt;stroke-linejoin:miter;stroke-miterlimit:10;stroke-dasharray:none;stroke-opacity:1"
       transform="matrix(1.3333333,0,0,-1.3333333,769.11935,398.07759)"
       clip-path="url(#clipPath56)" /></g></svg>
